#tb 0: 1/96000
#media_type 0: audio
#codec_id 0: pcm_s24le
#sample_rate 0: 96000
#channel_layout_name 0: 5.1(side)
0,          0,          0,     1024,    18432, 0xb8cdf0e4
0,       1024,       1024,     1024,    18432, 0x00000000
0,       2048,       2048,     1024,    18432, 0x89262806
0,       3072,       3072,     1024,    18432, 0xab935a48
0,       4096,       4096,     1024,    18432, 0xb9d4ef6a
0,       5120,       5120,     1024,    18432, 0x259fb33e
